<?xml version="1.0" encoding="utf-8"?>
<!-- Generator: Adobe Illustrator 24.3.0, SVG Export Plug-In . SVG Version: 6.00 Build 0)  -->
<svg version="1.1" id="Calque_1" xmlns="http://www.w3.org/2000/svg" xmlns:xlink="http://www.w3.org/1999/xlink" x="0px" y="0px"
	 viewBox="0 0 85 85" style="enable-background:new 0 0 85 85;" xml:space="preserve">
<style type="text/css">
	.st0{fill:#FFFFFF;}
</style>
<g>
	<path class="st0" d="M85.1,20.4c0-11.2-9-20.2-20.2-20.2c-11.1,0-20.2,9-20.2,20.2s9,20.2,20.2,20.2C76,40.6,85.1,31.5,85.1,20.4z
		 M65,38.5c-10,0-18-8.1-18-18.1S55,2.3,65,2.3s18,8.1,18,18.1S74.9,38.5,65,38.5z"/>
	<path class="st0" d="M65,4.2c-8.9,0-16.1,7.2-16.1,16.2S56.1,36.4,65,36.4s16-7.2,16-16.1S73.8,4.2,65,4.2z M66.1,34.3v-1.6
		c0-0.6-0.4-1.1-1.1-1.1c-0.6,0-1.1,0.4-1.1,1.1v1.6c-5.8-0.4-10.7-4.5-12.4-9.9h2.2c0.6,0,1.1-0.4,1.1-1.1c0-0.6-0.4-1.1-1.1-1.1
		h-2.7C51,21.6,51,21,51,20.4C51,13,56.7,6.9,63.9,6.4v1.9c0,0.6,0.4,1.1,1.1,1.1c0.6,0,1.1-0.4,1.1-1.1V6.4
		c6.7,0.5,12.1,5.9,12.7,12.6H77c-0.6,0-1.1,0.4-1.1,1.1s0.4,1.1,1.1,1.1h1.9C78.5,28.1,73,33.8,66.1,34.3z"/>
	<path class="st0" d="M71,12l-4.7,4.7c-0.4-0.2-1-0.3-1.4-0.3c-1.9,0-3.5,1.6-3.5,3.5c0,0.5,0.1,1,0.3,1.4l-4.5,4.5
		c-0.4,0.4-0.4,1.1,0,1.5c0.2,0.2,0.5,0.3,0.7,0.3s0.5-0.1,0.7-0.3l4.4-4.4c0.5,0.3,1.2,0.5,1.8,0.5c1.9,0,3.5-1.6,3.5-3.5
		c0-0.6-0.2-1.3-0.5-1.8l4.6-4.6c0.4-0.4,0.4-1.1,0-1.5C72.1,11.5,71.5,11.5,71,12z M65,21.2c-0.7,0-1.4-0.6-1.4-1.4
		c0-0.7,0.6-1.4,1.4-1.4s1.4,0.6,1.4,1.4C66.4,20.6,65.8,21.2,65,21.2z"/>
	<path class="st0" d="M60.4,65.2c0.2,0.1,0.4,0.2,0.6,0.2c0.3,0,0.6-0.1,0.8-0.4l0.5-0.9l1.8,1.3c0.2,0.1,0.4,0.2,0.6,0.2
		c0.3,0,0.6-0.1,0.8-0.4l5-7.2c0.2-0.2,0.2-0.5,0.2-0.7c0-0.3-0.2-0.5-0.4-0.6l-1.8-1.3l0.5-0.9c0.3-0.4,0.2-1.2-0.2-1.5L51.1,39.5
		c0.1-0.4,0-0.9-0.3-1.2L36.6,27c-0.6-0.4-1.4-0.6-2.1-0.5s-1.4,0.5-1.8,1.2l0,0l-8.4,11.8c-0.4,0.6-0.6,1.4-0.4,2.1
		c0.2,0.7,0.6,1.4,1.3,1.8l15.5,9.5c0.2,0.1,0.3,0.1,0.5,0.1c0.2,0,0.4-0.1,0.6-0.2l7.2,4.8L44.4,64l-6.9-5.1c0.1-0.4,0-0.9-0.3-1.2
		L23,46.4c-0.6-0.4-1.4-0.6-2.1-0.5s-1.4,0.5-1.8,1.2L10.8,59c-0.4,0.6-0.6,1.4-0.4,2.1c0.2,0.7,0.6,1.4,1.3,1.8l15.5,9.5
		c0.2,0.1,0.3,0.1,0.5,0.1s0.4-0.1,0.6-0.2L47,84.6c0.2,0.1,0.4,0.2,0.6,0.2c0.3,0,0.6-0.1,0.8-0.4l0.5-0.9l1.8,1.3
		c0.2,0.1,0.4,0.2,0.6,0.2c0.3,0,0.6-0.1,0.8-0.4l5-7.2c0.3-0.5,0.2-1.2-0.2-1.5l-1.8-1.3l0.5-0.9c0.3-0.4,0.2-1.2-0.2-1.5L51,68.9
		l4.8-6.8L60.4,65.2z M68.4,57.5l-3.7,5.4l-1-0.6l3.8-5.4L68.4,57.5z M60.8,62.8L43,51.1l6.8-9.8L66.9,54L60.8,62.8z M40.8,50.5
		l-10.9-6.7l8.7-12.5l10.1,8.1L40.8,50.5z M25.9,41.1c0-0.1,0-0.3,0.1-0.5l8.3-11.9c0.1-0.2,0.3-0.2,0.4-0.2c0.1,0,0.3,0,0.4,0.1
		l1.7,1.3L28,42.7l-1.8-1.1C26,41.4,25.9,41.2,25.9,41.1z M27.3,70l-11-6.7L25,50.8l10.1,8.1L27.3,70z M12.4,60.6
		c0-0.1,0-0.3,0.1-0.5l8.3-11.9c0.1-0.2,0.3-0.2,0.4-0.2h0.1c0.1,0,0.2,0,0.4,0.1l1.7,1.3L14.6,62l-1.8-1.1
		C12.5,60.8,12.4,60.7,12.4,60.6z M54.9,77l-3.8,5.4l-1-0.6l3.8-5.4L54.9,77z M47.8,81.3L47.8,81.3L47.8,81.3l-0.5,0.9L29.5,70.5
		l6.8-9.8l17.1,12.7L47.8,81.3z M49.2,67.6l-3.1-2.2l4.6-6.6l3.2,2.1L49.2,67.6z"/>
	<path class="st0" d="M1.3,43.6l5,3.9c0.6,0.4,1.3,0.7,2,0.7c0.1,0,0.3,0,0.4,0c0.8-0.1,1.7-0.5,2.2-1.3l18.1-23.3
		c2.5,0.1,5.4-0.1,7.7-3.1l2.1-2.7l0,0c0.2,0.1,0.4,0.2,0.6,0.2h0.1c0.3,0,0.5-0.2,0.7-0.4l2.1-2.7c0.3-0.4,0.3-1.2-0.2-1.5
		L25.6,0.2C25.4,0,25.1,0,24.9,0c-0.3,0-0.5,0.2-0.7,0.4L22,3.1c-0.3,0.4-0.3,1.2,0.2,1.5l0,0l-2.1,2.7c-2.2,2.9-1.9,5.6-1.2,8.1
		L0.7,38.8C-0.4,40.4-0.2,42.5,1.3,43.6z M25.2,2.6l15.2,11.8l-0.8,1.1L24.3,3.6L25.2,2.6z M37.3,16.5l-1.1,1.3L22.8,7.3l1.1-1.4
		L37.3,16.5z M21.6,9L35,19.5c-1.5,1.7-3.3,2.1-5.7,2l-8.2-6.4C20.3,12.6,20.2,10.9,21.6,9z M20.3,17.2l7,5.4L12.5,41.8l-7-5.4
		L20.3,17.2z M2.4,40.3L4.1,38l7,5.4l-1.7,2.2c-0.2,0.2-0.5,0.4-0.8,0.4s-0.6,0-1-0.2l-5-3.9C2.1,41.5,2,40.8,2.4,40.3z"/>
	<path class="st0" d="M9.3,35.7c0.1,0.7,0.4,1.4,1.1,1.8c0.5,0.4,1.1,0.5,1.6,0.5c0.8,0,1.6-0.3,2.1-1.1l3-3.7
		c0.4-0.5,0.6-1.3,0.5-2c-0.1-0.7-0.4-1.4-1.1-1.8c-1.2-1-2.9-0.7-3.7,0.4l-3,3.7C9.4,34.2,9.2,34.9,9.3,35.7z M11.5,34.9l3-3.7
		c0-0.2,0.2-0.2,0.4-0.2c0.1,0,0.2,0,0.3,0.1c0.1,0.1,0.2,0.2,0.2,0.3c0,0.1,0,0.3-0.1,0.4l-3,3.7c-0.1,0.1-0.2,0.2-0.3,0.2
		c-0.1,0-0.3,0-0.4-0.1l0,0c-0.1-0.1-0.2-0.2-0.2-0.3C11.4,35.3,11.4,35,11.5,34.9z"/>
</g>
</svg>
