<?xml version="1.0" encoding="utf-8"?>
<!-- Generator: Adobe Illustrator 24.3.0, SVG Export Plug-In . SVG Version: 6.00 Build 0)  -->
<svg version="1.1" id="Calque_1" xmlns="http://www.w3.org/2000/svg" xmlns:xlink="http://www.w3.org/1999/xlink" x="0px" y="0px"
	 viewBox="0 0 85 85" style="enable-background:new 0 0 85 85;" xml:space="preserve">
<style type="text/css">
	.st0{fill:#FFFFFF;}
</style>
<g>
	<path class="st0" d="M63,53l19.2-18.5c0.3-0.3,0.4-0.6,0.3-0.9c-0.1-0.4-0.4-0.5-0.7-0.6l-26.5-3.8L43.4,5.5
		c-0.3-0.6-1.4-0.6-1.6,0L29.9,29.1L3.3,33c-0.4,0.1-0.6,0.3-0.7,0.6c-0.1,0.4,0,0.7,0.3,0.9l19.2,18.4L17.6,79
		c-0.1,0.4,0.1,0.7,0.4,0.9s0.6,0.3,1,0.1l23.5-12.3L66.3,80c0.1,0.1,0.3,0.1,0.5,0.1c0.2,0,0.4-0.1,0.5-0.2
		c0.3-0.2,0.5-0.5,0.4-0.9L63,53z M43,65.8c-0.3-0.2-0.5-0.2-0.8,0L19.6,77.5l4.3-24.7c0.1-0.3-0.1-0.6-0.3-0.8L5.5,34.5l25.2-3.6
		c0.3,0,0.5-0.3,0.7-0.5L42.5,7.9l11.3,22.5c0.1,0.3,0.4,0.5,0.7,0.5l25.2,3.6L61.4,52c-0.2,0.2-0.3,0.5-0.3,0.8l4.3,24.7L43,65.8z"
		/>
	<path class="st0" d="M26.6,17.5c0.2,0.2,0.5,0.3,0.6,0.3c0.1,0,0.5-0.1,0.6-0.3c0.4-0.4,0.4-0.9,0-1.3L17.5,5.9
		c-0.4-0.4-0.9-0.4-1.3,0c-0.4,0.4-0.4,0.9,0,1.3L26.6,17.5z"/>
	<path class="st0" d="M11.8,66.6L0.3,77.9c-0.4,0.4-0.4,0.9,0,1.3c0.2,0.2,0.5,0.3,0.6,0.3s0.5-0.1,0.6-0.3L13,67.9
		c0.4-0.4,0.4-0.9,0-1.3C12.7,66.2,12.1,66.2,11.8,66.6z"/>
	<path class="st0" d="M2.8,55.6c0.1,0,0.2,0,0.3,0l7.7-2.4c0.5-0.2,0.7-0.6,0.5-1.2c-0.2-0.5-0.6-0.7-1.2-0.5l-7.7,2.3
		C1.9,54,1.7,54.5,1.8,55C2,55.4,2.4,55.6,2.8,55.6z"/>
	<path class="st0" d="M11.2,22.9l5.1,3.3c0.2,0.1,0.4,0.2,0.5,0.2c0.3,0,0.5-0.2,0.7-0.5c0.3-0.5,0.2-1-0.3-1.3l-5.1-3.3
		c-0.5-0.3-1-0.2-1.3,0.3C10.7,22,10.8,22.6,11.2,22.9z"/>
	<path class="st0" d="M57.8,17.8c0.3,0,0.5-0.1,0.6-0.3L69,7.3c0.4-0.4,0.4-0.9,0-1.3c-0.4-0.4-0.9-0.4-1.3,0L57.2,16.2
		c-0.4,0.4-0.4,0.9,0,1.3C57.4,17.7,57.6,17.8,57.8,17.8z"/>
	<path class="st0" d="M73.4,66.6c-0.4-0.4-0.9-0.4-1.3,0c-0.4,0.4-0.4,0.9,0,1.3l11.5,11.3c0.2,0.2,0.5,0.3,0.6,0.3s0.5-0.1,0.6-0.3
		c0.4-0.4,0.4-0.9,0-1.3L73.4,66.6z"/>
	<path class="st0" d="M74.9,51.4c-0.5-0.2-1,0.1-1.2,0.5c-0.2,0.5,0.1,1,0.5,1.2l7.7,2.4c0.1,0,0.2,0,0.3,0c0.4,0,0.7-0.3,0.9-0.6
		c0.2-0.5-0.1-1-0.5-1.2L74.9,51.4z"/>
	<path class="st0" d="M67.5,25.9c0.2,0.3,0.5,0.5,0.7,0.5c0.2,0,0.4-0.1,0.5-0.2l5.1-3.3c0.5-0.3,0.5-0.8,0.3-1.3
		c-0.3-0.5-0.8-0.5-1.3-0.3l-5.1,3.3C67.3,24.9,67.2,25.5,67.5,25.9z"/>
	<path class="st0" d="M43.3,43.5v-6.8C45,37,46,37.9,46,39.6h2.6c-0.3-3.1-2.1-4.7-5.5-4.9v-2.2h-1.5v2.1c-1.7,0.2-3,0.7-4.1,1.7
		S36,38.6,36,40.2c0,2.8,1.8,4.6,5.7,5.4v7.7c-2-0.4-3.1-1.6-3.3-3.9h-2.4c0.3,3.6,2.3,5.6,6,6v2.1h1.5v-2.1
		c1.8-0.1,3.3-0.7,4.4-1.9s1.5-2.6,1.5-4.2c0-1.5-0.4-2.7-1.2-3.6C47.3,44.6,45.7,44,43.3,43.5z M41.9,43.2c-0.9-0.3-1.5-0.5-2.1-1
		C39.2,41.7,39,41,39,40c0-1.9,1-3,2.9-3.4V43.2z M43.3,53.2v-7.3c1.3,0.4,2.1,0.7,2.5,1.3c0.5,0.5,0.6,1.2,0.6,2.2
		C46.5,51.6,45.5,52.9,43.3,53.2z"/>
</g>
</svg>
