<?xml version="1.0" encoding="utf-8"?>
<!-- Generator: Adobe Illustrator 24.3.0, SVG Export Plug-In . SVG Version: 6.00 Build 0)  -->
<svg version="1.1" id="Calque_1" xmlns="http://www.w3.org/2000/svg" xmlns:xlink="http://www.w3.org/1999/xlink" x="0px" y="0px"
	 viewBox="0 0 85 85" style="enable-background:new 0 0 85 85;" xml:space="preserve">
<style type="text/css">
	.st0{fill:#FFFFFF;}
</style>
<path class="st0" d="M83.5,2.8c-0.2-0.3-0.6-0.8-1-1c-0.2,0-5.2-1.6-11.9-1.6C63.3,0.2,53,1.9,44.7,11c-5.3,5.6-10.2,11.7-14.1,17.5
	c-3.6-1.7-13.9-6.6-18.9,0.2C6.4,35.6,0.4,46.4,0.2,47c-0.2,0.6-0.2,1.2,0,1.6c0.2,0.3,1,0.8,1.4,0.6c3.6-0.6,13.3-1.6,17.5,0
	l0.8,0.8l-3.9,1.7c-0.3,0.2-0.8,0.6-0.8,1c0,0.3,0,1,0.3,1.4l2.4,2.4c-3.6,2.5-11.7,9.5-11.3,20.9c0,0.8,0.6,1.4,1.4,1.4
	c0.3,0,0.6,0,1,0l0,0c10.8,0,17.5-7.8,19.9-11.4l2.4,2.4c0.2,0.2,0.6,0.3,1,0.3h0.2c0.3,0,0.8-0.3,1-0.8l1.7-4.2l0.8,0.8
	c1.7,4.2,0.6,13.9,0,17.5c0,0.6,0.2,1.2,0.6,1.4c0.2,0.2,0.6,0.2,0.8,0.2c0.2,0,0.3,0,0.8-0.2c0.3-0.2,11.3-6.1,18.3-11.6
	c6.6-5,2-15.3,0.2-18.9c5.6-3.9,11.9-8.8,17.5-14.1C90.6,25.1,83.5,3.1,83.5,2.8z M4.2,45.6c2.2-3.8,6.1-10.5,9.7-15.3
	c3.6-4.5,11.6-1.2,14.9,0.6c-4.7,7-8.1,12.7-9.5,15.1C15.1,44.6,8.1,45.2,4.2,45.6z M26.7,65.5c-1.7,2.5-7.8,10.2-17.2,10.3
	c0.2-9.4,7.8-15.3,10.3-17.3l3.4,3.4L26.7,65.5z M31.7,66.3L19,53.6l3.1-1.4l11.1,11.1L31.7,66.3z M55,71.4
	C50.3,75,43.4,79,39.7,81.2c0.3-3.9,1-10.8-0.3-15.1c2.4-1.4,8.1-4.8,14.9-9.5C56,59.7,59.4,67.8,55,71.4z M72.3,38.4
	C58.8,51.2,42.2,61.1,38,63.6l-16-16c2.4-4.2,12.1-20.9,25-34.4C54.8,5,64.1,3.4,70.8,3.4c4.7,0,8.6,0.8,10.2,1.4
	C81.8,8.2,85.7,25.9,72.3,38.4z"/>
<path class="st0" d="M60,15.4c-2.5,0-5.2,1-6.9,2.8C49.2,22,49.2,28.3,53,32c1.7,1.7,4.4,2.8,6.9,2.8c2.5,0,5.2-1,6.9-2.8
	s3-4.4,2.8-7c0-2.5-1-5.2-3-7C65.2,16.5,62.6,15.4,60,15.4z M64.9,30.1c-1.4,1.4-3,2-4.7,2c-1.7,0-3.6-0.8-4.7-2
	c-2.5-2.5-2.5-7,0-9.7c1.4-1.4,3-2,4.7-2c1.7,0,3.6,0.8,4.7,2c1.4,1.4,2,3,2,4.8C66.9,26.9,66.1,28.9,64.9,30.1z"/>
</svg>
